# xmcd
# 
# Track frame offsets:
#     150
#     20349
#     37133
#     54040
#     68988
#     86299
#     106126
#     125194
#     145680
#     166312
# 
# Disc length: 2448
# 
# Revision: 0
# Processed by: cddbd v1.5.2PL0 Copyright (c) Steve Scherf et al.
# Submitted via: fre:ac v1.0.31
# 
DISCID=7e098e0a
DTITLE=坂本冬美 - ENKA III ～偲歌～
DYEAR=2018
DGENRE=Other
TTITLE0=港町ブルース
TTITLE1=女のブルース
TTITLE2=ふたりの旅路
TTITLE3=大阪ラプソディー duet with マルシア
TTITLE4=空港
TTITLE5=ふりむけばヨコハマ
TTITLE6=噂の女
TTITLE7=望郷
TTITLE8=火の国の女
TTITLE9=君こそわが命
EXTD=
EXTT0=
EXTT1=
EXTT2=
EXTT3=
EXTT4=
EXTT5=
EXTT6=
EXTT7=
EXTT8=
EXTT9=
PLAYORDER=
